<?xml version="1.0" encoding="UTF-8" standalone="no"?><svg xmlns="http://www.w3.org/2000/svg" xmlns:xlink="http://www.w3.org/1999/xlink" contentScriptType="application/ecmascript" contentStyleType="text/css" height="459px" preserveAspectRatio="none" style="width:713px;height:459px;" version="1.1" viewBox="0 0 713 459" width="713px" zoomAndPan="magnify"><defs><filter height="300%" id="fxv20nsmz61ie" width="300%" x="-1" y="-1"><feGaussianBlur result="blurOut" stdDeviation="2.0"/><feColorMatrix in="blurOut" result="blurOut2" type="matrix" values="0 0 0 0 0 0 0 0 0 0 0 0 0 0 0 0 0 0 .4 0"/><feOffset dx="4.0" dy="4.0" in="blurOut2" result="blurOut3"/><feBlend in="SourceGraphic" in2="blurOut3" mode="normal"/></filter></defs><g><ellipse cx="356" cy="20" fill="#000000" filter="url(#fxv20nsmz61ie)" rx="10" ry="10" style="stroke: none; stroke-width: 1.0;"/><rect fill="#000000" filter="url(#fxv20nsmz61ie)" height="6" rx="2.5" ry="2.5" style="stroke: #000000; stroke-width: 1.0;" width="692" x="10" y="50"/><rect fill="#000000" filter="url(#fxv20nsmz61ie)" height="6" rx="2.5" ry="2.5" style="stroke: #000000; stroke-width: 1.0;" width="304" x="22" y="89.918"/><rect fill="#FEFECE" filter="url(#fxv20nsmz61ie)" height="33.9688" rx="12.5" ry="12.5" style="stroke: #A80036; stroke-width: 1.5;" width="113" x="34" y="115.918"/><text fill="#000000" font-family="sans-serif" font-size="12" lengthAdjust="spacingAndGlyphs" textLength="93" x="44" y="137.0566">boil_eggs_step</text><rect fill="#FEFECE" filter="url(#fxv20nsmz61ie)" height="33.9688" rx="12.5" ry="12.5" style="stroke: #A80036; stroke-width: 1.5;" width="111" x="35" y="184.8867"/><text fill="#000000" font-family="sans-serif" font-size="12" lengthAdjust="spacingAndGlyphs" textLength="91" x="45" y="206.0254">cut_eggs_step</text><rect fill="#FEFECE" filter="url(#fxv20nsmz61ie)" height="33.9688" rx="12.5" ry="12.5" style="stroke: #A80036; stroke-width: 1.5;" width="137" x="175" y="115.918"/><text fill="#000000" font-family="sans-serif" font-size="12" lengthAdjust="spacingAndGlyphs" textLength="117" x="185" y="137.0566">wash_carrots_step</text><rect fill="#FEFECE" filter="url(#fxv20nsmz61ie)" height="33.9688" rx="12.5" ry="12.5" style="stroke: #A80036; stroke-width: 1.5;" width="125" x="181" y="184.8867"/><text fill="#000000" font-family="sans-serif" font-size="12" lengthAdjust="spacingAndGlyphs" textLength="105" x="191" y="206.0254">cut_carrots_step</text><rect fill="#000000" filter="url(#fxv20nsmz61ie)" height="6" rx="2.5" ry="2.5" style="stroke: #000000; stroke-width: 1.0;" width="304" x="22" y="238.8555"/><rect fill="#FEFECE" filter="url(#fxv20nsmz61ie)" height="33.9688" rx="12.5" ry="12.5" style="stroke: #A80036; stroke-width: 1.5;" width="128" x="109" y="278.7734"/><text fill="#000000" font-family="sans-serif" font-size="12" lengthAdjust="spacingAndGlyphs" textLength="108" x="119" y="299.9121">make_salad_step</text><rect fill="#000000" filter="url(#fxv20nsmz61ie)" height="6" rx="2.5" ry="2.5" style="stroke: #000000; stroke-width: 1.0;" width="336" x="354" y="76"/><rect fill="#FEFECE" filter="url(#fxv20nsmz61ie)" height="33.9688" rx="12.5" ry="12.5" style="stroke: #A80036; stroke-width: 1.5;" width="112" x="378" y="150.4023"/><text fill="#000000" font-family="sans-serif" font-size="12" lengthAdjust="spacingAndGlyphs" textLength="92" x="388" y="171.541">cut_meat_step</text><polygon fill="#FEFECE" filter="url(#fxv20nsmz61ie)" points="388,102,480,102,492,114,480,126,388,126,376,114,388,102" style="stroke: #A80036; stroke-width: 1.5;"/><text fill="#000000" font-family="sans-serif" font-size="11" lengthAdjust="spacingAndGlyphs" textLength="20" x="438" y="136.2104">yes</text><text fill="#000000" font-family="sans-serif" font-size="11" lengthAdjust="spacingAndGlyphs" textLength="92" x="388" y="117.8081">is_meat_too_big</text><text fill="#000000" font-family="sans-serif" font-size="11" lengthAdjust="spacingAndGlyphs" textLength="14" x="492" y="111.4058">no</text><polygon fill="#FEFECE" filter="url(#fxv20nsmz61ie)" points="434,208.7734,446,220.7734,434,232.7734,422,220.7734,434,208.7734" style="stroke: #A80036; stroke-width: 1.5;"/><rect fill="#FEFECE" filter="url(#fxv20nsmz61ie)" height="33.9688" rx="12.5" ry="12.5" style="stroke: #A80036; stroke-width: 1.5;" width="138" x="540" y="150.4023"/><text fill="#000000" font-family="sans-serif" font-size="12" lengthAdjust="spacingAndGlyphs" textLength="118" x="550" y="171.541">turn_on_oven_step</text><rect fill="#000000" filter="url(#fxv20nsmz61ie)" height="6" rx="2.5" ry="2.5" style="stroke: #000000; stroke-width: 1.0;" width="336" x="354" y="252.7734"/><rect fill="#FEFECE" filter="url(#fxv20nsmz61ie)" height="33.9688" rx="12.5" ry="12.5" style="stroke: #A80036; stroke-width: 1.5;" width="193" x="426.5" y="292.6914"/><text fill="#000000" font-family="sans-serif" font-size="12" lengthAdjust="spacingAndGlyphs" textLength="173" x="436.5" y="313.8301">put_meat_in_the_oven_step</text><rect fill="#000000" filter="url(#fxv20nsmz61ie)" height="6" rx="2.5" ry="2.5" style="stroke: #000000; stroke-width: 1.0;" width="692" x="10" y="346.6602"/><rect fill="#FEFECE" filter="url(#fxv20nsmz61ie)" height="33.9688" rx="12.5" ry="12.5" style="stroke: #A80036; stroke-width: 1.5;" width="88" x="312" y="372.6602"/><text fill="#000000" font-family="sans-serif" font-size="12" lengthAdjust="spacingAndGlyphs" textLength="68" x="322" y="393.7988">serve_step</text><ellipse cx="356" cy="437.6289" fill="#FFFFFF" filter="url(#fxv20nsmz61ie)" rx="11" ry="11" style="stroke: #000000; stroke-width: 1.0;"/><ellipse cx="356" cy="437.6289" fill="#000000" rx="6" ry="6" style="stroke: #7F7F7F; stroke-width: 1.0;"/><line style="stroke: #A80036; stroke-width: 1.5;" x1="90.5" x2="90.5" y1="149.8867" y2="184.8867"/><polygon fill="#A80036" points="86.5,174.8867,90.5,184.8867,94.5,174.8867,90.5,178.8867" style="stroke: #A80036; stroke-width: 1.0;"/><line style="stroke: #A80036; stroke-width: 1.5;" x1="243.5" x2="243.5" y1="149.8867" y2="184.8867"/><polygon fill="#A80036" points="239.5,174.8867,243.5,184.8867,247.5,174.8867,243.5,178.8867" style="stroke: #A80036; stroke-width: 1.0;"/><line style="stroke: #A80036; stroke-width: 1.5;" x1="90.5" x2="90.5" y1="95.918" y2="115.918"/><polygon fill="#A80036" points="86.5,105.918,90.5,115.918,94.5,105.918,90.5,109.918" style="stroke: #A80036; stroke-width: 1.0;"/><line style="stroke: #A80036; stroke-width: 1.5;" x1="243.5" x2="243.5" y1="95.918" y2="115.918"/><polygon fill="#A80036" points="239.5,105.918,243.5,115.918,247.5,105.918,243.5,109.918" style="stroke: #A80036; stroke-width: 1.0;"/><line style="stroke: #A80036; stroke-width: 1.5;" x1="90.5" x2="90.5" y1="218.8555" y2="238.8555"/><polygon fill="#A80036" points="86.5,228.8555,90.5,238.8555,94.5,228.8555,90.5,232.8555" style="stroke: #A80036; stroke-width: 1.0;"/><line style="stroke: #A80036; stroke-width: 1.5;" x1="243.5" x2="243.5" y1="218.8555" y2="238.8555"/><polygon fill="#A80036" points="239.5,228.8555,243.5,238.8555,247.5,228.8555,243.5,232.8555" style="stroke: #A80036; stroke-width: 1.0;"/><line style="stroke: #A80036; stroke-width: 1.5;" x1="173" x2="173" y1="244.8555" y2="278.7734"/><polygon fill="#A80036" points="169,268.7734,173,278.7734,177,268.7734,173,272.7734" style="stroke: #A80036; stroke-width: 1.0;"/><line style="stroke: #A80036; stroke-width: 1.5;" x1="434" x2="434" y1="126" y2="150.4023"/><polygon fill="#A80036" points="430,140.4023,434,150.4023,438,140.4023,434,144.4023" style="stroke: #A80036; stroke-width: 1.0;"/><line style="stroke: #A80036; stroke-width: 1.5;" x1="492" x2="504" y1="114" y2="114"/><polygon fill="#A80036" points="500,157.3867,504,167.3867,508,157.3867,504,161.3867" style="stroke: #A80036; stroke-width: 1.5;"/><line style="stroke: #A80036; stroke-width: 1.5;" x1="504" x2="504" y1="114" y2="220.7734"/><line style="stroke: #A80036; stroke-width: 1.5;" x1="504" x2="446" y1="220.7734" y2="220.7734"/><polygon fill="#A80036" points="456,216.7734,446,220.7734,456,224.7734,452,220.7734" style="stroke: #A80036; stroke-width: 1.0;"/><line style="stroke: #A80036; stroke-width: 1.5;" x1="434" x2="434" y1="184.3711" y2="208.7734"/><polygon fill="#A80036" points="430,198.7734,434,208.7734,438,198.7734,434,202.7734" style="stroke: #A80036; stroke-width: 1.0;"/><line style="stroke: #A80036; stroke-width: 1.5;" x1="434" x2="434" y1="82" y2="102"/><polygon fill="#A80036" points="430,92,434,102,438,92,434,96" style="stroke: #A80036; stroke-width: 1.0;"/><line style="stroke: #A80036; stroke-width: 1.5;" x1="609" x2="609" y1="82" y2="150.4023"/><polygon fill="#A80036" points="605,140.4023,609,150.4023,613,140.4023,609,144.4023" style="stroke: #A80036; stroke-width: 1.0;"/><line style="stroke: #A80036; stroke-width: 1.5;" x1="434" x2="434" y1="232.7734" y2="252.7734"/><polygon fill="#A80036" points="430,242.7734,434,252.7734,438,242.7734,434,246.7734" style="stroke: #A80036; stroke-width: 1.0;"/><line style="stroke: #A80036; stroke-width: 1.5;" x1="609" x2="609" y1="184.3711" y2="252.7734"/><polygon fill="#A80036" points="605,242.7734,609,252.7734,613,242.7734,609,246.7734" style="stroke: #A80036; stroke-width: 1.0;"/><line style="stroke: #A80036; stroke-width: 1.5;" x1="523" x2="523" y1="258.7734" y2="292.6914"/><polygon fill="#A80036" points="519,282.6914,523,292.6914,527,282.6914,523,286.6914" style="stroke: #A80036; stroke-width: 1.0;"/><line style="stroke: #A80036; stroke-width: 1.5;" x1="173" x2="173" y1="56" y2="89.918"/><polygon fill="#A80036" points="169,79.918,173,89.918,177,79.918,173,83.918" style="stroke: #A80036; stroke-width: 1.0;"/><line style="stroke: #A80036; stroke-width: 1.5;" x1="523" x2="523" y1="56" y2="76"/><polygon fill="#A80036" points="519,66,523,76,527,66,523,70" style="stroke: #A80036; stroke-width: 1.0;"/><line style="stroke: #A80036; stroke-width: 1.5;" x1="173" x2="173" y1="312.7422" y2="346.6602"/><polygon fill="#A80036" points="169,336.6602,173,346.6602,177,336.6602,173,340.6602" style="stroke: #A80036; stroke-width: 1.0;"/><line style="stroke: #A80036; stroke-width: 1.5;" x1="523" x2="523" y1="326.6602" y2="346.6602"/><polygon fill="#A80036" points="519,336.6602,523,346.6602,527,336.6602,523,340.6602" style="stroke: #A80036; stroke-width: 1.0;"/><line style="stroke: #A80036; stroke-width: 1.5;" x1="356" x2="356" y1="30" y2="50"/><polygon fill="#A80036" points="352,40,356,50,360,40,356,44" style="stroke: #A80036; stroke-width: 1.0;"/><line style="stroke: #A80036; stroke-width: 1.5;" x1="356" x2="356" y1="352.6602" y2="372.6602"/><polygon fill="#A80036" points="352,362.6602,356,372.6602,360,362.6602,356,366.6602" style="stroke: #A80036; stroke-width: 1.0;"/><line style="stroke: #A80036; stroke-width: 1.5;" x1="356" x2="356" y1="406.6289" y2="426.6289"/><polygon fill="#A80036" points="352,416.6289,356,426.6289,360,416.6289,356,420.6289" style="stroke: #A80036; stroke-width: 1.0;"/><!--MD5=[3a9aa36d5625d6f3115e7a79e2a5a94b]
@startuml
start
fork
fork
:boil_eggs_step;
:cut_eggs_step;
fork again
:wash_carrots_step;
:cut_carrots_step;
end fork
:make_salad_step;
fork again
fork
if (is_meat_too_big) then (yes)
:cut_meat_step;
else (no)
endif
fork again
:turn_on_oven_step;
end fork
:put_meat_in_the_oven_step;
end fork
:serve_step;
stop
@enduml

PlantUML version 1.2020.01beta15(Unknown compile time)
(GPL source distribution)
Java Runtime: Java(TM) SE Runtime Environment
JVM: Java HotSpot(TM) 64-Bit Server VM
Java Version: 1.7.0_25-b15
Operating System: Linux
Default Encoding: UTF-8
Language: en
Country: US
--></g></svg>