<?xml version="1.0" encoding="UTF-8" standalone="no"?><svg xmlns="http://www.w3.org/2000/svg" xmlns:xlink="http://www.w3.org/1999/xlink" contentScriptType="application/ecmascript" contentStyleType="text/css" height="459px" preserveAspectRatio="none" style="width:747px;height:459px;" version="1.1" viewBox="0 0 747 459" width="747px" zoomAndPan="magnify"><defs><filter height="300%" id="f17l3ith7h4pmd" width="300%" x="-1" y="-1"><feGaussianBlur result="blurOut" stdDeviation="2.0"/><feColorMatrix in="blurOut" result="blurOut2" type="matrix" values="0 0 0 0 0 0 0 0 0 0 0 0 0 0 0 0 0 0 .4 0"/><feOffset dx="4.0" dy="4.0" in="blurOut2" result="blurOut3"/><feBlend in="SourceGraphic" in2="blurOut3" mode="normal"/></filter></defs><g><ellipse cx="372" cy="20" fill="#000000" filter="url(#f17l3ith7h4pmd)" rx="10" ry="10" style="stroke: none; stroke-width: 1.0;"/><rect fill="#000000" filter="url(#f17l3ith7h4pmd)" height="6" rx="2.5" ry="2.5" style="stroke: #000000; stroke-width: 1.0;" width="726" x="10" y="50"/><rect fill="#000000" filter="url(#f17l3ith7h4pmd)" height="6" rx="2.5" ry="2.5" style="stroke: #000000; stroke-width: 1.0;" width="302" x="22" y="89.918"/><rect fill="#FEFECE" filter="url(#f17l3ith7h4pmd)" height="33.9688" rx="12.5" ry="12.5" style="stroke: #A80036; stroke-width: 1.5;" width="113" x="34" y="115.918"/><text fill="#000000" font-family="sans-serif" font-size="12" lengthAdjust="spacingAndGlyphs" textLength="93" x="44" y="137.0566">boil_eggs_step</text><rect fill="#FEFECE" filter="url(#f17l3ith7h4pmd)" height="33.9688" rx="12.5" ry="12.5" style="stroke: #A80036; stroke-width: 1.5;" width="111" x="35" y="184.8867"/><text fill="#000000" font-family="sans-serif" font-size="12" lengthAdjust="spacingAndGlyphs" textLength="91" x="45" y="206.0254">cut_eggs_step</text><rect fill="#FEFECE" filter="url(#f17l3ith7h4pmd)" height="33.9688" rx="12.5" ry="12.5" style="stroke: #A80036; stroke-width: 1.5;" width="137" x="175" y="115.918"/><text fill="#000000" font-family="sans-serif" font-size="12" lengthAdjust="spacingAndGlyphs" textLength="117" x="185" y="137.0566">wash_carrots_step</text><rect fill="#FEFECE" filter="url(#f17l3ith7h4pmd)" height="33.9688" rx="12.5" ry="12.5" style="stroke: #A80036; stroke-width: 1.5;" width="125" x="181" y="184.8867"/><text fill="#000000" font-family="sans-serif" font-size="12" lengthAdjust="spacingAndGlyphs" textLength="105" x="191" y="206.0254">cut_carrots_step</text><rect fill="#000000" filter="url(#f17l3ith7h4pmd)" height="6" rx="2.5" ry="2.5" style="stroke: #000000; stroke-width: 1.0;" width="302" x="22" y="238.8555"/><rect fill="#FEFECE" filter="url(#f17l3ith7h4pmd)" height="33.9688" rx="12.5" ry="12.5" style="stroke: #A80036; stroke-width: 1.5;" width="128" x="109" y="278.7734"/><text fill="#000000" font-family="sans-serif" font-size="12" lengthAdjust="spacingAndGlyphs" textLength="108" x="119" y="299.9121">make_salad_step</text><rect fill="#000000" filter="url(#f17l3ith7h4pmd)" height="6" rx="2.5" ry="2.5" style="stroke: #000000; stroke-width: 1.0;" width="372" x="352" y="76"/><rect fill="#FEFECE" filter="url(#f17l3ith7h4pmd)" height="33.9688" rx="12.5" ry="12.5" style="stroke: #A80036; stroke-width: 1.5;" width="112" x="394" y="150.4023"/><text fill="#000000" font-family="sans-serif" font-size="12" lengthAdjust="spacingAndGlyphs" textLength="92" x="404" y="171.541">cut_meat_step</text><polygon fill="#FEFECE" filter="url(#f17l3ith7h4pmd)" points="378,102,522,102,534,114,522,126,378,126,366,114,378,102" style="stroke: #A80036; stroke-width: 1.5;"/><text fill="#000000" font-family="sans-serif" font-size="11" lengthAdjust="spacingAndGlyphs" textLength="20" x="454" y="136.2104">yes</text><text fill="#000000" font-family="sans-serif" font-size="11" lengthAdjust="spacingAndGlyphs" textLength="144" x="378" y="117.8081">IsMeatTooBigForTheOven</text><text fill="#000000" font-family="sans-serif" font-size="11" lengthAdjust="spacingAndGlyphs" textLength="14" x="534" y="111.4058">no</text><polygon fill="#FEFECE" filter="url(#f17l3ith7h4pmd)" points="450,208.7734,462,220.7734,450,232.7734,438,220.7734,450,208.7734" style="stroke: #A80036; stroke-width: 1.5;"/><rect fill="#FEFECE" filter="url(#f17l3ith7h4pmd)" height="33.9688" rx="12.5" ry="12.5" style="stroke: #A80036; stroke-width: 1.5;" width="138" x="574" y="150.4023"/><text fill="#000000" font-family="sans-serif" font-size="12" lengthAdjust="spacingAndGlyphs" textLength="118" x="584" y="171.541">turn_on_oven_step</text><rect fill="#000000" filter="url(#f17l3ith7h4pmd)" height="6" rx="2.5" ry="2.5" style="stroke: #000000; stroke-width: 1.0;" width="372" x="352" y="252.7734"/><rect fill="#FEFECE" filter="url(#f17l3ith7h4pmd)" height="33.9688" rx="12.5" ry="12.5" style="stroke: #A80036; stroke-width: 1.5;" width="193" x="442.5" y="292.6914"/><text fill="#000000" font-family="sans-serif" font-size="12" lengthAdjust="spacingAndGlyphs" textLength="173" x="452.5" y="313.8301">put_meat_in_the_oven_step</text><rect fill="#000000" filter="url(#f17l3ith7h4pmd)" height="6" rx="2.5" ry="2.5" style="stroke: #000000; stroke-width: 1.0;" width="726" x="10" y="346.6602"/><rect fill="#FEFECE" filter="url(#f17l3ith7h4pmd)" height="33.9688" rx="12.5" ry="12.5" style="stroke: #A80036; stroke-width: 1.5;" width="88" x="328" y="372.6602"/><text fill="#000000" font-family="sans-serif" font-size="12" lengthAdjust="spacingAndGlyphs" textLength="68" x="338" y="393.7988">serve_step</text><ellipse cx="372" cy="437.6289" fill="#FFFFFF" filter="url(#f17l3ith7h4pmd)" rx="11" ry="11" style="stroke: #000000; stroke-width: 1.0;"/><ellipse cx="372" cy="437.6289" fill="#000000" rx="6" ry="6" style="stroke: #7F7F7F; stroke-width: 1.0;"/><line style="stroke: #A80036; stroke-width: 1.5;" x1="90.5" x2="90.5" y1="149.8867" y2="184.8867"/><polygon fill="#A80036" points="86.5,174.8867,90.5,184.8867,94.5,174.8867,90.5,178.8867" style="stroke: #A80036; stroke-width: 1.0;"/><line style="stroke: #A80036; stroke-width: 1.5;" x1="243.5" x2="243.5" y1="149.8867" y2="184.8867"/><polygon fill="#A80036" points="239.5,174.8867,243.5,184.8867,247.5,174.8867,243.5,178.8867" style="stroke: #A80036; stroke-width: 1.0;"/><line style="stroke: #A80036; stroke-width: 1.5;" x1="90.5" x2="90.5" y1="95.918" y2="115.918"/><polygon fill="#A80036" points="86.5,105.918,90.5,115.918,94.5,105.918,90.5,109.918" style="stroke: #A80036; stroke-width: 1.0;"/><line style="stroke: #A80036; stroke-width: 1.5;" x1="243.5" x2="243.5" y1="95.918" y2="115.918"/><polygon fill="#A80036" points="239.5,105.918,243.5,115.918,247.5,105.918,243.5,109.918" style="stroke: #A80036; stroke-width: 1.0;"/><line style="stroke: #A80036; stroke-width: 1.5;" x1="90.5" x2="90.5" y1="218.8555" y2="238.8555"/><polygon fill="#A80036" points="86.5,228.8555,90.5,238.8555,94.5,228.8555,90.5,232.8555" style="stroke: #A80036; stroke-width: 1.0;"/><line style="stroke: #A80036; stroke-width: 1.5;" x1="243.5" x2="243.5" y1="218.8555" y2="238.8555"/><polygon fill="#A80036" points="239.5,228.8555,243.5,238.8555,247.5,228.8555,243.5,232.8555" style="stroke: #A80036; stroke-width: 1.0;"/><line style="stroke: #A80036; stroke-width: 1.5;" x1="173" x2="173" y1="244.8555" y2="278.7734"/><polygon fill="#A80036" points="169,268.7734,173,278.7734,177,268.7734,173,272.7734" style="stroke: #A80036; stroke-width: 1.0;"/><line style="stroke: #A80036; stroke-width: 1.5;" x1="450" x2="450" y1="126" y2="150.4023"/><polygon fill="#A80036" points="446,140.4023,450,150.4023,454,140.4023,450,144.4023" style="stroke: #A80036; stroke-width: 1.0;"/><line style="stroke: #A80036; stroke-width: 1.5;" x1="534" x2="546" y1="114" y2="114"/><polygon fill="#A80036" points="542,157.3867,546,167.3867,550,157.3867,546,161.3867" style="stroke: #A80036; stroke-width: 1.5;"/><line style="stroke: #A80036; stroke-width: 1.5;" x1="546" x2="546" y1="114" y2="220.7734"/><line style="stroke: #A80036; stroke-width: 1.5;" x1="546" x2="462" y1="220.7734" y2="220.7734"/><polygon fill="#A80036" points="472,216.7734,462,220.7734,472,224.7734,468,220.7734" style="stroke: #A80036; stroke-width: 1.0;"/><line style="stroke: #A80036; stroke-width: 1.5;" x1="450" x2="450" y1="184.3711" y2="208.7734"/><polygon fill="#A80036" points="446,198.7734,450,208.7734,454,198.7734,450,202.7734" style="stroke: #A80036; stroke-width: 1.0;"/><line style="stroke: #A80036; stroke-width: 1.5;" x1="450" x2="450" y1="82" y2="102"/><polygon fill="#A80036" points="446,92,450,102,454,92,450,96" style="stroke: #A80036; stroke-width: 1.0;"/><line style="stroke: #A80036; stroke-width: 1.5;" x1="643" x2="643" y1="82" y2="150.4023"/><polygon fill="#A80036" points="639,140.4023,643,150.4023,647,140.4023,643,144.4023" style="stroke: #A80036; stroke-width: 1.0;"/><line style="stroke: #A80036; stroke-width: 1.5;" x1="450" x2="450" y1="232.7734" y2="252.7734"/><polygon fill="#A80036" points="446,242.7734,450,252.7734,454,242.7734,450,246.7734" style="stroke: #A80036; stroke-width: 1.0;"/><line style="stroke: #A80036; stroke-width: 1.5;" x1="643" x2="643" y1="184.3711" y2="252.7734"/><polygon fill="#A80036" points="639,242.7734,643,252.7734,647,242.7734,643,246.7734" style="stroke: #A80036; stroke-width: 1.0;"/><line style="stroke: #A80036; stroke-width: 1.5;" x1="539" x2="539" y1="258.7734" y2="292.6914"/><polygon fill="#A80036" points="535,282.6914,539,292.6914,543,282.6914,539,286.6914" style="stroke: #A80036; stroke-width: 1.0;"/><line style="stroke: #A80036; stroke-width: 1.5;" x1="173" x2="173" y1="56" y2="89.918"/><polygon fill="#A80036" points="169,79.918,173,89.918,177,79.918,173,83.918" style="stroke: #A80036; stroke-width: 1.0;"/><line style="stroke: #A80036; stroke-width: 1.5;" x1="539" x2="539" y1="56" y2="76"/><polygon fill="#A80036" points="535,66,539,76,543,66,539,70" style="stroke: #A80036; stroke-width: 1.0;"/><line style="stroke: #A80036; stroke-width: 1.5;" x1="173" x2="173" y1="312.7422" y2="346.6602"/><polygon fill="#A80036" points="169,336.6602,173,346.6602,177,336.6602,173,340.6602" style="stroke: #A80036; stroke-width: 1.0;"/><line style="stroke: #A80036; stroke-width: 1.5;" x1="539" x2="539" y1="326.6602" y2="346.6602"/><polygon fill="#A80036" points="535,336.6602,539,346.6602,543,336.6602,539,340.6602" style="stroke: #A80036; stroke-width: 1.0;"/><line style="stroke: #A80036; stroke-width: 1.5;" x1="372" x2="372" y1="30" y2="50"/><polygon fill="#A80036" points="368,40,372,50,376,40,372,44" style="stroke: #A80036; stroke-width: 1.0;"/><line style="stroke: #A80036; stroke-width: 1.5;" x1="372" x2="372" y1="352.6602" y2="372.6602"/><polygon fill="#A80036" points="368,362.6602,372,372.6602,376,362.6602,372,366.6602" style="stroke: #A80036; stroke-width: 1.0;"/><line style="stroke: #A80036; stroke-width: 1.5;" x1="372" x2="372" y1="406.6289" y2="426.6289"/><polygon fill="#A80036" points="368,416.6289,372,426.6289,376,416.6289,372,420.6289" style="stroke: #A80036; stroke-width: 1.0;"/><!--MD5=[9e84e34d9e2fbe08a9008820fbe67ac5]
@startuml
start
fork
fork
:boil_eggs_step;
:cut_eggs_step;
fork again
:wash_carrots_step;
:cut_carrots_step;
end fork
:make_salad_step;
fork again
fork
if (IsMeatTooBigForTheOven) then (yes)
:cut_meat_step;
else (no)
endif
fork again
:turn_on_oven_step;
end fork
:put_meat_in_the_oven_step;
end fork
:serve_step;
stop
@enduml

PlantUML version 1.2020.01beta5(Unknown compile time)
(GPL source distribution)
Java Runtime: Java(TM) SE Runtime Environment
JVM: Java HotSpot(TM) 64-Bit Server VM
Java Version: 1.7.0_25-b15
Operating System: Linux
Default Encoding: UTF-8
Language: en
Country: US
--></g></svg>