<?xml version="1.0" encoding="UTF-8" standalone="no"?><svg xmlns="http://www.w3.org/2000/svg" xmlns:xlink="http://www.w3.org/1999/xlink" contentStyleType="text/css" height="583px" preserveAspectRatio="none" style="width:699px;height:583px;background:#FFFFFF;" version="1.1" viewBox="0 0 699 583" width="699px" zoomAndPan="magnify"><defs/><g><ellipse cx="349.5" cy="20" fill="#222222" rx="10" ry="10" style="stroke:#222222;stroke-width:1.0;"/><rect fill="#555555" height="6" rx="2.5" ry="2.5" style="stroke:#555555;stroke-width:1.0;" width="677" x="11" y="50"/><rect fill="#555555" height="6" rx="2.5" ry="2.5" style="stroke:#555555;stroke-width:1.0;" width="299" x="23" y="158.8867"/><rect fill="#F1F1F1" height="33.9688" rx="12.5" ry="12.5" style="stroke:#181818;stroke-width:0.5;" width="112" x="35" y="184.8867"/><text fill="#000000" font-family="sans-serif" font-size="12" lengthAdjust="spacing" textLength="92" x="45" y="206.0254">boil_eggs_step</text><rect fill="#F1F1F1" height="33.9688" rx="12.5" ry="12.5" style="stroke:#181818;stroke-width:0.5;" width="108" x="37" y="253.8555"/><text fill="#000000" font-family="sans-serif" font-size="12" lengthAdjust="spacing" textLength="88" x="47" y="274.9941">cut_eggs_step</text><rect fill="#F1F1F1" height="33.9688" rx="12.5" ry="12.5" style="stroke:#181818;stroke-width:0.5;" width="133" x="175" y="184.8867"/><text fill="#000000" font-family="sans-serif" font-size="12" lengthAdjust="spacing" textLength="113" x="185" y="206.0254">wash_carrots_step</text><rect fill="#F1F1F1" height="33.9688" rx="12.5" ry="12.5" style="stroke:#181818;stroke-width:0.5;" width="120" x="181.5" y="253.8555"/><text fill="#000000" font-family="sans-serif" font-size="12" lengthAdjust="spacing" textLength="100" x="191.5" y="274.9941">cut_carrots_step</text><rect fill="#555555" height="6" rx="2.5" ry="2.5" style="stroke:#555555;stroke-width:1.0;" width="299" x="23" y="307.8242"/><rect fill="#F1F1F1" height="33.9688" rx="12.5" ry="12.5" style="stroke:#181818;stroke-width:0.5;" width="124" x="109.5" y="348.8242"/><text fill="#000000" font-family="sans-serif" font-size="12" lengthAdjust="spacing" textLength="104" x="119.5" y="369.9629">make_salad_step</text><rect fill="#555555" height="6" rx="2.5" ry="2.5" style="stroke:#555555;stroke-width:1.0;" width="326" x="350" y="76"/><rect fill="#F1F1F1" height="33.9688" rx="12.5" ry="12.5" style="stroke:#181818;stroke-width:0.5;" width="76" x="389.5" y="102"/><text fill="#000000" font-family="sans-serif" font-size="12" lengthAdjust="spacing" textLength="56" x="399.5" y="123.1387">get_meat</text><rect fill="#F1F1F1" height="33.9688" rx="12.5" ry="12.5" style="stroke:#181818;stroke-width:0.5;" width="107" x="374" y="219.3711"/><text fill="#000000" font-family="sans-serif" font-size="12" lengthAdjust="spacing" textLength="87" x="384" y="240.5098">cut_meat_step</text><polygon fill="#F1F1F1" points="381.5,170.9688,473.5,170.9688,485.5,182.9688,473.5,194.9688,381.5,194.9688,369.5,182.9688,381.5,170.9688" style="stroke:#181818;stroke-width:0.5;"/><text fill="#000000" font-family="sans-serif" font-size="11" lengthAdjust="spacing" textLength="21" x="431.5" y="205.1792">yes</text><text fill="#000000" font-family="sans-serif" font-size="11" lengthAdjust="spacing" textLength="92" x="381.5" y="186.7769">is_meat_too_big</text><text fill="#000000" font-family="sans-serif" font-size="11" lengthAdjust="spacing" textLength="14" x="485.5" y="180.3745">no</text><polygon fill="#F1F1F1" points="427.5,277.7422,439.5,289.7422,427.5,301.7422,415.5,289.7422,427.5,277.7422" style="stroke:#181818;stroke-width:0.5;"/><rect fill="#F1F1F1" height="33.9688" rx="12.5" ry="12.5" style="stroke:#181818;stroke-width:0.5;" width="75" x="390" y="336.7422"/><text fill="#000000" font-family="sans-serif" font-size="12" lengthAdjust="spacing" textLength="55" x="400" y="357.8809">put_meat</text><rect fill="#F1F1F1" height="33.9688" rx="12.5" ry="12.5" style="stroke:#181818;stroke-width:0.5;" width="76" x="559.5" y="150.4023"/><text fill="#000000" font-family="sans-serif" font-size="12" lengthAdjust="spacing" textLength="56" x="569.5" y="171.541">get_oven</text><rect fill="#F1F1F1" height="33.9688" rx="12.5" ry="12.5" style="stroke:#181818;stroke-width:0.5;" width="133" x="531" y="219.3711"/><text fill="#000000" font-family="sans-serif" font-size="12" lengthAdjust="spacing" textLength="113" x="541" y="240.5098">turn_on_oven_step</text><rect fill="#F1F1F1" height="33.9688" rx="12.5" ry="12.5" style="stroke:#181818;stroke-width:0.5;" width="75" x="560" y="288.3398"/><text fill="#000000" font-family="sans-serif" font-size="12" lengthAdjust="spacing" textLength="55" x="570" y="309.4785">put_oven</text><rect fill="#555555" height="6" rx="2.5" ry="2.5" style="stroke:#555555;stroke-width:1.0;" width="326" x="350" y="390.7109"/><rect fill="#F1F1F1" height="33.9688" rx="12.5" ry="12.5" style="stroke:#181818;stroke-width:0.5;" width="119" x="454.5" y="416.7109"/><text fill="#000000" font-family="sans-serif" font-size="12" lengthAdjust="spacing" textLength="99" x="464.5" y="437.8496">cook_meat_step</text><rect fill="#555555" height="6" rx="2.5" ry="2.5" style="stroke:#555555;stroke-width:1.0;" width="677" x="11" y="470.6797"/><rect fill="#F1F1F1" height="33.9688" rx="12.5" ry="12.5" style="stroke:#181818;stroke-width:0.5;" width="88" x="305.5" y="496.6797"/><text fill="#000000" font-family="sans-serif" font-size="12" lengthAdjust="spacing" textLength="68" x="315.5" y="517.8184">serve_step</text><ellipse cx="349.5" cy="561.6484" rx="11" ry="11" style="stroke:#222222;stroke-width:1.0;fill:none;"/><ellipse cx="349.5" cy="561.6484" fill="#222222" rx="6" ry="6" style="stroke:#111111;stroke-width:1.0;"/><line style="stroke:#181818;stroke-width:1.0;" x1="91" x2="91" y1="218.8555" y2="253.8555"/><polygon fill="#181818" points="87,243.8555,91,253.8555,95,243.8555,91,247.8555" style="stroke:#181818;stroke-width:1.0;"/><line style="stroke:#181818;stroke-width:1.0;" x1="241.5" x2="241.5" y1="218.8555" y2="253.8555"/><polygon fill="#181818" points="237.5,243.8555,241.5,253.8555,245.5,243.8555,241.5,247.8555" style="stroke:#181818;stroke-width:1.0;"/><line style="stroke:#181818;stroke-width:1.0;" x1="91" x2="91" y1="164.8867" y2="184.8867"/><polygon fill="#181818" points="87,174.8867,91,184.8867,95,174.8867,91,178.8867" style="stroke:#181818;stroke-width:1.0;"/><line style="stroke:#181818;stroke-width:1.0;" x1="241.5" x2="241.5" y1="164.8867" y2="184.8867"/><polygon fill="#181818" points="237.5,174.8867,241.5,184.8867,245.5,174.8867,241.5,178.8867" style="stroke:#181818;stroke-width:1.0;"/><line style="stroke:#181818;stroke-width:1.0;" x1="91" x2="91" y1="287.8242" y2="307.8242"/><polygon fill="#181818" points="87,297.8242,91,307.8242,95,297.8242,91,301.8242" style="stroke:#181818;stroke-width:1.0;"/><line style="stroke:#181818;stroke-width:1.0;" x1="241.5" x2="241.5" y1="287.8242" y2="307.8242"/><polygon fill="#181818" points="237.5,297.8242,241.5,307.8242,245.5,297.8242,241.5,301.8242" style="stroke:#181818;stroke-width:1.0;"/><line style="stroke:#181818;stroke-width:1.0;" x1="171.5" x2="171.5" y1="313.8242" y2="348.8242"/><polygon fill="#181818" points="167.5,338.8242,171.5,348.8242,175.5,338.8242,171.5,342.8242" style="stroke:#181818;stroke-width:1.0;"/><line style="stroke:#181818;stroke-width:1.0;" x1="427.5" x2="427.5" y1="194.9688" y2="219.3711"/><polygon fill="#181818" points="423.5,209.3711,427.5,219.3711,431.5,209.3711,427.5,213.3711" style="stroke:#181818;stroke-width:1.0;"/><line style="stroke:#181818;stroke-width:1.0;" x1="485.5" x2="497.5" y1="182.9688" y2="182.9688"/><polygon fill="#181818" points="493.5,226.3555,497.5,236.3555,501.5,226.3555,497.5,230.3555" style="stroke:#181818;stroke-width:1.0;"/><line style="stroke:#181818;stroke-width:1.0;" x1="497.5" x2="497.5" y1="182.9688" y2="289.7422"/><line style="stroke:#181818;stroke-width:1.0;" x1="497.5" x2="439.5" y1="289.7422" y2="289.7422"/><polygon fill="#181818" points="449.5,285.7422,439.5,289.7422,449.5,293.7422,445.5,289.7422" style="stroke:#181818;stroke-width:1.0;"/><line style="stroke:#181818;stroke-width:1.0;" x1="427.5" x2="427.5" y1="253.3398" y2="277.7422"/><polygon fill="#181818" points="423.5,267.7422,427.5,277.7422,431.5,267.7422,427.5,271.7422" style="stroke:#181818;stroke-width:1.0;"/><line style="stroke:#181818;stroke-width:1.0;" x1="427.5" x2="427.5" y1="135.9688" y2="170.9688"/><polygon fill="#181818" points="423.5,160.9688,427.5,170.9688,431.5,160.9688,427.5,164.9688" style="stroke:#181818;stroke-width:1.0;"/><line style="stroke:#181818;stroke-width:1.0;" x1="427.5" x2="427.5" y1="301.7422" y2="336.7422"/><polygon fill="#181818" points="423.5,326.7422,427.5,336.7422,431.5,326.7422,427.5,330.7422" style="stroke:#181818;stroke-width:1.0;"/><line style="stroke:#181818;stroke-width:1.0;" x1="597.5" x2="597.5" y1="184.3711" y2="219.3711"/><polygon fill="#181818" points="593.5,209.3711,597.5,219.3711,601.5,209.3711,597.5,213.3711" style="stroke:#181818;stroke-width:1.0;"/><line style="stroke:#181818;stroke-width:1.0;" x1="597.5" x2="597.5" y1="253.3398" y2="288.3398"/><polygon fill="#181818" points="593.5,278.3398,597.5,288.3398,601.5,278.3398,597.5,282.3398" style="stroke:#181818;stroke-width:1.0;"/><line style="stroke:#181818;stroke-width:1.0;" x1="427.5" x2="427.5" y1="82" y2="102"/><polygon fill="#181818" points="423.5,92,427.5,102,431.5,92,427.5,96" style="stroke:#181818;stroke-width:1.0;"/><line style="stroke:#181818;stroke-width:1.0;" x1="597.5" x2="597.5" y1="82" y2="150.4023"/><polygon fill="#181818" points="593.5,140.4023,597.5,150.4023,601.5,140.4023,597.5,144.4023" style="stroke:#181818;stroke-width:1.0;"/><line style="stroke:#181818;stroke-width:1.0;" x1="427.5" x2="427.5" y1="370.7109" y2="390.7109"/><polygon fill="#181818" points="423.5,380.7109,427.5,390.7109,431.5,380.7109,427.5,384.7109" style="stroke:#181818;stroke-width:1.0;"/><line style="stroke:#181818;stroke-width:1.0;" x1="597.5" x2="597.5" y1="322.3086" y2="390.7109"/><polygon fill="#181818" points="593.5,380.7109,597.5,390.7109,601.5,380.7109,597.5,384.7109" style="stroke:#181818;stroke-width:1.0;"/><line style="stroke:#181818;stroke-width:1.0;" x1="514" x2="514" y1="396.7109" y2="416.7109"/><polygon fill="#181818" points="510,406.7109,514,416.7109,518,406.7109,514,410.7109" style="stroke:#181818;stroke-width:1.0;"/><line style="stroke:#181818;stroke-width:1.0;" x1="171.5" x2="171.5" y1="56" y2="158.8867"/><polygon fill="#181818" points="167.5,148.8867,171.5,158.8867,175.5,148.8867,171.5,152.8867" style="stroke:#181818;stroke-width:1.0;"/><line style="stroke:#181818;stroke-width:1.0;" x1="514" x2="514" y1="56" y2="76"/><polygon fill="#181818" points="510,66,514,76,518,66,514,70" style="stroke:#181818;stroke-width:1.0;"/><line style="stroke:#181818;stroke-width:1.0;" x1="171.5" x2="171.5" y1="382.793" y2="470.6797"/><polygon fill="#181818" points="167.5,460.6797,171.5,470.6797,175.5,460.6797,171.5,464.6797" style="stroke:#181818;stroke-width:1.0;"/><line style="stroke:#181818;stroke-width:1.0;" x1="514" x2="514" y1="450.6797" y2="470.6797"/><polygon fill="#181818" points="510,460.6797,514,470.6797,518,460.6797,514,464.6797" style="stroke:#181818;stroke-width:1.0;"/><line style="stroke:#181818;stroke-width:1.0;" x1="349.5" x2="349.5" y1="30" y2="50"/><polygon fill="#181818" points="345.5,40,349.5,50,353.5,40,349.5,44" style="stroke:#181818;stroke-width:1.0;"/><line style="stroke:#181818;stroke-width:1.0;" x1="349.5" x2="349.5" y1="476.6797" y2="496.6797"/><polygon fill="#181818" points="345.5,486.6797,349.5,496.6797,353.5,486.6797,349.5,490.6797" style="stroke:#181818;stroke-width:1.0;"/><line style="stroke:#181818;stroke-width:1.0;" x1="349.5" x2="349.5" y1="530.6484" y2="550.6484"/><polygon fill="#181818" points="345.5,540.6484,349.5,550.6484,353.5,540.6484,349.5,544.6484" style="stroke:#181818;stroke-width:1.0;"/><!--MD5=[59ed3fd8ad6f8057d438942ef06f71ff]
@startuml
start
fork
fork
:boil_eggs_step;
:cut_eggs_step;
fork again
:wash_carrots_step;
:cut_carrots_step;
end fork
:make_salad_step;
fork again
fork
:get_meat;
if (is_meat_too_big) then (yes)
:cut_meat_step;
else (no)
endif
:put_meat;
fork again
:get_oven;
:turn_on_oven_step;
:put_oven;
end fork
:cook_meat_step;
end fork
:serve_step;
stop
@enduml

PlantUML version 1.2022.5(Sat Apr 30 10:55:52 UTC 2022)
(GPL source distribution)
Java Runtime: Java(TM) SE Runtime Environment
JVM: Java HotSpot(TM) 64-Bit Server VM
Default Encoding: UTF-8
Language: en
Country: US
--></g></svg>