<?xml version="1.0" encoding="UTF-8" standalone="no"?><svg xmlns="http://www.w3.org/2000/svg" xmlns:xlink="http://www.w3.org/1999/xlink" contentStyleType="text/css" height="459px" preserveAspectRatio="none" style="width:699px;height:459px;background:#FFFFFF;" version="1.1" viewBox="0 0 699 459" width="699px" zoomAndPan="magnify"><defs/><g><ellipse cx="349.5" cy="20" fill="#222222" rx="10" ry="10" style="stroke:#222222;stroke-width:1.0;"/><rect fill="#555555" height="6" rx="2.5" ry="2.5" style="stroke:#555555;stroke-width:1.0;" width="677" x="11" y="50"/><rect fill="#555555" height="6" rx="2.5" ry="2.5" style="stroke:#555555;stroke-width:1.0;" width="299" x="23" y="89.918"/><rect fill="#F1F1F1" height="33.9688" rx="12.5" ry="12.5" style="stroke:#181818;stroke-width:0.5;" width="112" x="35" y="115.918"/><text fill="#000000" font-family="sans-serif" font-size="12" lengthAdjust="spacing" textLength="92" x="45" y="137.0566">boil_eggs_step</text><rect fill="#F1F1F1" height="33.9688" rx="12.5" ry="12.5" style="stroke:#181818;stroke-width:0.5;" width="108" x="37" y="184.8867"/><text fill="#000000" font-family="sans-serif" font-size="12" lengthAdjust="spacing" textLength="88" x="47" y="206.0254">cut_eggs_step</text><rect fill="#F1F1F1" height="33.9688" rx="12.5" ry="12.5" style="stroke:#181818;stroke-width:0.5;" width="133" x="175" y="115.918"/><text fill="#000000" font-family="sans-serif" font-size="12" lengthAdjust="spacing" textLength="113" x="185" y="137.0566">wash_carrots_step</text><rect fill="#F1F1F1" height="33.9688" rx="12.5" ry="12.5" style="stroke:#181818;stroke-width:0.5;" width="120" x="181.5" y="184.8867"/><text fill="#000000" font-family="sans-serif" font-size="12" lengthAdjust="spacing" textLength="100" x="191.5" y="206.0254">cut_carrots_step</text><rect fill="#555555" height="6" rx="2.5" ry="2.5" style="stroke:#555555;stroke-width:1.0;" width="299" x="23" y="238.8555"/><rect fill="#F1F1F1" height="33.9688" rx="12.5" ry="12.5" style="stroke:#181818;stroke-width:0.5;" width="124" x="109.5" y="278.7734"/><text fill="#000000" font-family="sans-serif" font-size="12" lengthAdjust="spacing" textLength="104" x="119.5" y="299.9121">make_salad_step</text><rect fill="#555555" height="6" rx="2.5" ry="2.5" style="stroke:#555555;stroke-width:1.0;" width="326" x="350" y="76"/><rect fill="#F1F1F1" height="33.9688" rx="12.5" ry="12.5" style="stroke:#181818;stroke-width:0.5;" width="107" x="374" y="150.4023"/><text fill="#000000" font-family="sans-serif" font-size="12" lengthAdjust="spacing" textLength="87" x="384" y="171.541">cut_meat_step</text><polygon fill="#F1F1F1" points="381.5,102,473.5,102,485.5,114,473.5,126,381.5,126,369.5,114,381.5,102" style="stroke:#181818;stroke-width:0.5;"/><text fill="#000000" font-family="sans-serif" font-size="11" lengthAdjust="spacing" textLength="21" x="431.5" y="136.2104">yes</text><text fill="#000000" font-family="sans-serif" font-size="11" lengthAdjust="spacing" textLength="92" x="381.5" y="117.8081">is_meat_too_big</text><text fill="#000000" font-family="sans-serif" font-size="11" lengthAdjust="spacing" textLength="14" x="485.5" y="111.4058">no</text><polygon fill="#F1F1F1" points="427.5,208.7734,439.5,220.7734,427.5,232.7734,415.5,220.7734,427.5,208.7734" style="stroke:#181818;stroke-width:0.5;"/><rect fill="#F1F1F1" height="33.9688" rx="12.5" ry="12.5" style="stroke:#181818;stroke-width:0.5;" width="133" x="531" y="150.4023"/><text fill="#000000" font-family="sans-serif" font-size="12" lengthAdjust="spacing" textLength="113" x="541" y="171.541">turn_on_oven_step</text><rect fill="#555555" height="6" rx="2.5" ry="2.5" style="stroke:#555555;stroke-width:1.0;" width="326" x="350" y="252.7734"/><rect fill="#F1F1F1" height="33.9688" rx="12.5" ry="12.5" style="stroke:#181818;stroke-width:0.5;" width="119" x="454.5" y="292.6914"/><text fill="#000000" font-family="sans-serif" font-size="12" lengthAdjust="spacing" textLength="99" x="464.5" y="313.8301">cook_meat_step</text><rect fill="#555555" height="6" rx="2.5" ry="2.5" style="stroke:#555555;stroke-width:1.0;" width="677" x="11" y="346.6602"/><rect fill="#F1F1F1" height="33.9688" rx="12.5" ry="12.5" style="stroke:#181818;stroke-width:0.5;" width="88" x="305.5" y="372.6602"/><text fill="#000000" font-family="sans-serif" font-size="12" lengthAdjust="spacing" textLength="68" x="315.5" y="393.7988">serve_step</text><ellipse cx="349.5" cy="437.6289" rx="11" ry="11" style="stroke:#222222;stroke-width:1.0;fill:none;"/><ellipse cx="349.5" cy="437.6289" fill="#222222" rx="6" ry="6" style="stroke:#111111;stroke-width:1.0;"/><line style="stroke:#181818;stroke-width:1.0;" x1="91" x2="91" y1="149.8867" y2="184.8867"/><polygon fill="#181818" points="87,174.8867,91,184.8867,95,174.8867,91,178.8867" style="stroke:#181818;stroke-width:1.0;"/><line style="stroke:#181818;stroke-width:1.0;" x1="241.5" x2="241.5" y1="149.8867" y2="184.8867"/><polygon fill="#181818" points="237.5,174.8867,241.5,184.8867,245.5,174.8867,241.5,178.8867" style="stroke:#181818;stroke-width:1.0;"/><line style="stroke:#181818;stroke-width:1.0;" x1="91" x2="91" y1="95.918" y2="115.918"/><polygon fill="#181818" points="87,105.918,91,115.918,95,105.918,91,109.918" style="stroke:#181818;stroke-width:1.0;"/><line style="stroke:#181818;stroke-width:1.0;" x1="241.5" x2="241.5" y1="95.918" y2="115.918"/><polygon fill="#181818" points="237.5,105.918,241.5,115.918,245.5,105.918,241.5,109.918" style="stroke:#181818;stroke-width:1.0;"/><line style="stroke:#181818;stroke-width:1.0;" x1="91" x2="91" y1="218.8555" y2="238.8555"/><polygon fill="#181818" points="87,228.8555,91,238.8555,95,228.8555,91,232.8555" style="stroke:#181818;stroke-width:1.0;"/><line style="stroke:#181818;stroke-width:1.0;" x1="241.5" x2="241.5" y1="218.8555" y2="238.8555"/><polygon fill="#181818" points="237.5,228.8555,241.5,238.8555,245.5,228.8555,241.5,232.8555" style="stroke:#181818;stroke-width:1.0;"/><line style="stroke:#181818;stroke-width:1.0;" x1="171.5" x2="171.5" y1="244.8555" y2="278.7734"/><polygon fill="#181818" points="167.5,268.7734,171.5,278.7734,175.5,268.7734,171.5,272.7734" style="stroke:#181818;stroke-width:1.0;"/><line style="stroke:#181818;stroke-width:1.0;" x1="427.5" x2="427.5" y1="126" y2="150.4023"/><polygon fill="#181818" points="423.5,140.4023,427.5,150.4023,431.5,140.4023,427.5,144.4023" style="stroke:#181818;stroke-width:1.0;"/><line style="stroke:#181818;stroke-width:1.0;" x1="485.5" x2="497.5" y1="114" y2="114"/><polygon fill="#181818" points="493.5,157.3867,497.5,167.3867,501.5,157.3867,497.5,161.3867" style="stroke:#181818;stroke-width:1.0;"/><line style="stroke:#181818;stroke-width:1.0;" x1="497.5" x2="497.5" y1="114" y2="220.7734"/><line style="stroke:#181818;stroke-width:1.0;" x1="497.5" x2="439.5" y1="220.7734" y2="220.7734"/><polygon fill="#181818" points="449.5,216.7734,439.5,220.7734,449.5,224.7734,445.5,220.7734" style="stroke:#181818;stroke-width:1.0;"/><line style="stroke:#181818;stroke-width:1.0;" x1="427.5" x2="427.5" y1="184.3711" y2="208.7734"/><polygon fill="#181818" points="423.5,198.7734,427.5,208.7734,431.5,198.7734,427.5,202.7734" style="stroke:#181818;stroke-width:1.0;"/><line style="stroke:#181818;stroke-width:1.0;" x1="427.5" x2="427.5" y1="82" y2="102"/><polygon fill="#181818" points="423.5,92,427.5,102,431.5,92,427.5,96" style="stroke:#181818;stroke-width:1.0;"/><line style="stroke:#181818;stroke-width:1.0;" x1="597.5" x2="597.5" y1="82" y2="150.4023"/><polygon fill="#181818" points="593.5,140.4023,597.5,150.4023,601.5,140.4023,597.5,144.4023" style="stroke:#181818;stroke-width:1.0;"/><line style="stroke:#181818;stroke-width:1.0;" x1="427.5" x2="427.5" y1="232.7734" y2="252.7734"/><polygon fill="#181818" points="423.5,242.7734,427.5,252.7734,431.5,242.7734,427.5,246.7734" style="stroke:#181818;stroke-width:1.0;"/><line style="stroke:#181818;stroke-width:1.0;" x1="597.5" x2="597.5" y1="184.3711" y2="252.7734"/><polygon fill="#181818" points="593.5,242.7734,597.5,252.7734,601.5,242.7734,597.5,246.7734" style="stroke:#181818;stroke-width:1.0;"/><line style="stroke:#181818;stroke-width:1.0;" x1="514" x2="514" y1="258.7734" y2="292.6914"/><polygon fill="#181818" points="510,282.6914,514,292.6914,518,282.6914,514,286.6914" style="stroke:#181818;stroke-width:1.0;"/><line style="stroke:#181818;stroke-width:1.0;" x1="171.5" x2="171.5" y1="56" y2="89.918"/><polygon fill="#181818" points="167.5,79.918,171.5,89.918,175.5,79.918,171.5,83.918" style="stroke:#181818;stroke-width:1.0;"/><line style="stroke:#181818;stroke-width:1.0;" x1="514" x2="514" y1="56" y2="76"/><polygon fill="#181818" points="510,66,514,76,518,66,514,70" style="stroke:#181818;stroke-width:1.0;"/><line style="stroke:#181818;stroke-width:1.0;" x1="171.5" x2="171.5" y1="312.7422" y2="346.6602"/><polygon fill="#181818" points="167.5,336.6602,171.5,346.6602,175.5,336.6602,171.5,340.6602" style="stroke:#181818;stroke-width:1.0;"/><line style="stroke:#181818;stroke-width:1.0;" x1="514" x2="514" y1="326.6602" y2="346.6602"/><polygon fill="#181818" points="510,336.6602,514,346.6602,518,336.6602,514,340.6602" style="stroke:#181818;stroke-width:1.0;"/><line style="stroke:#181818;stroke-width:1.0;" x1="349.5" x2="349.5" y1="30" y2="50"/><polygon fill="#181818" points="345.5,40,349.5,50,353.5,40,349.5,44" style="stroke:#181818;stroke-width:1.0;"/><line style="stroke:#181818;stroke-width:1.0;" x1="349.5" x2="349.5" y1="352.6602" y2="372.6602"/><polygon fill="#181818" points="345.5,362.6602,349.5,372.6602,353.5,362.6602,349.5,366.6602" style="stroke:#181818;stroke-width:1.0;"/><line style="stroke:#181818;stroke-width:1.0;" x1="349.5" x2="349.5" y1="406.6289" y2="426.6289"/><polygon fill="#181818" points="345.5,416.6289,349.5,426.6289,353.5,416.6289,349.5,420.6289" style="stroke:#181818;stroke-width:1.0;"/><!--MD5=[c6a3e093a50cf739cc4700ca9a128e66]
@startuml
start
fork
fork
:boil_eggs_step;
:cut_eggs_step;
fork again
:wash_carrots_step;
:cut_carrots_step;
end fork
:make_salad_step;
fork again
fork
if (is_meat_too_big) then (yes)
:cut_meat_step;
else (no)
endif
fork again
:turn_on_oven_step;
end fork
:cook_meat_step;
end fork
:serve_step;
stop
@enduml

PlantUML version 1.2022.5(Sat Apr 30 10:55:52 UTC 2022)
(GPL source distribution)
Java Runtime: Java(TM) SE Runtime Environment
JVM: Java HotSpot(TM) 64-Bit Server VM
Default Encoding: UTF-8
Language: en
Country: US
--></g></svg>