<?xml version="1.0" encoding="UTF-8" standalone="no"?><svg xmlns="http://www.w3.org/2000/svg" xmlns:xlink="http://www.w3.org/1999/xlink" contentStyleType="text/css" height="633px" preserveAspectRatio="none" style="width:416px;height:633px;background:#FFFFFF;" version="1.1" viewBox="0 0 416 633" width="416px" zoomAndPan="magnify"><defs/><g><ellipse cx="195.5" cy="20" fill="#222222" rx="10" ry="10" style="stroke:#222222;stroke-width:1.0;"/><rect fill="#F1F1F1" height="33.9688" rx="12.5" ry="12.5" style="stroke:#181818;stroke-width:0.5;" width="124" x="133.5" y="50"/><text fill="#000000" font-family="sans-serif" font-size="12" lengthAdjust="spacing" textLength="104" x="143.5" y="71.1387">unmarshall_event</text><rect fill="#555555" height="6" rx="2.5" ry="2.5" style="stroke:#555555;stroke-width:1.0;" width="363" x="14" y="103.9688"/><rect fill="#F1F1F1" height="33.9688" rx="12.5" ry="12.5" style="stroke:#181818;stroke-width:0.5;" width="82" x="57" y="164.4531"/><text fill="#000000" font-family="sans-serif" font-size="12" lengthAdjust="spacing" textLength="62" x="67" y="185.5918">get_driver</text><rect fill="#F1F1F1" height="33.9688" rx="12.5" ry="12.5" style="stroke:#181818;stroke-width:0.5;" width="140" x="28" y="233.4219"/><text fill="#000000" font-family="sans-serif" font-size="12" lengthAdjust="spacing" textLength="120" x="38" y="254.5605">driver_to_geodriver</text><rect fill="#F1F1F1" height="33.9688" rx="12.5" ry="12.5" style="stroke:#181818;stroke-width:0.5;" width="167" x="196" y="129.9688"/><text fill="#000000" font-family="sans-serif" font-size="12" lengthAdjust="spacing" textLength="147" x="206" y="151.1074">get_current_coordinates</text><rect fill="#F1F1F1" height="33.9688" rx="12.5" ry="12.5" style="stroke:#181818;stroke-width:0.5;" width="93" x="233" y="198.9375"/><text fill="#000000" font-family="sans-serif" font-size="12" lengthAdjust="spacing" textLength="73" x="243" y="220.0762">get_location</text><rect fill="#F1F1F1" height="33.9688" rx="12.5" ry="12.5" style="stroke:#181818;stroke-width:0.5;" width="151" x="204" y="267.9063"/><text fill="#000000" font-family="sans-serif" font-size="12" lengthAdjust="spacing" textLength="131" x="214" y="289.0449">location_to_geodriver</text><rect fill="#555555" height="6" rx="2.5" ry="2.5" style="stroke:#555555;stroke-width:1.0;" width="363" x="14" y="321.875"/><rect fill="#555555" height="6" rx="2.5" ry="2.5" style="stroke:#555555;stroke-width:1.0;" width="369" x="11" y="396.2773"/><rect fill="#F1F1F1" height="33.9688" rx="12.5" ry="12.5" style="stroke:#181818;stroke-width:0.5;" width="134" x="25" y="422.2773"/><text fill="#000000" font-family="sans-serif" font-size="12" lengthAdjust="spacing" textLength="114" x="35" y="443.416">notify_driver_close</text><rect fill="#F1F1F1" height="33.9688" rx="12.5" ry="12.5" style="stroke:#181818;stroke-width:0.5;" width="179" x="187" y="422.2773"/><text fill="#000000" font-family="sans-serif" font-size="12" lengthAdjust="spacing" textLength="159" x="197" y="443.416">save_driver_in_destination</text><rect fill="#555555" height="6" rx="2.5" ry="2.5" style="stroke:#555555;stroke-width:1.0;" width="369" x="11" y="476.2461"/><polygon fill="#F1F1F1" points="110.5,347.875,280.5,347.875,292.5,359.875,280.5,371.875,110.5,371.875,98.5,359.875,110.5,347.875" style="stroke:#181818;stroke-width:0.5;"/><text fill="#000000" font-family="sans-serif" font-size="11" lengthAdjust="spacing" textLength="21" x="199.5" y="382.0854">yes</text><text fill="#000000" font-family="sans-serif" font-size="11" lengthAdjust="spacing" textLength="170" x="110.5" y="363.6831">is_driver_close_to_destination</text><text fill="#000000" font-family="sans-serif" font-size="11" lengthAdjust="spacing" textLength="14" x="292.5" y="357.2808">no</text><polygon fill="#F1F1F1" points="195.5,502.2461,207.5,514.2461,195.5,526.2461,183.5,514.2461,195.5,502.2461" style="stroke:#181818;stroke-width:0.5;"/><rect fill="#F1F1F1" height="33.9688" rx="12.5" ry="12.5" style="stroke:#181818;stroke-width:0.5;" width="182" x="104.5" y="546.2461"/><text fill="#000000" font-family="sans-serif" font-size="12" lengthAdjust="spacing" textLength="162" x="114.5" y="567.3848">mark_event_as_processed</text><ellipse cx="195.5" cy="611.2148" rx="11" ry="11" style="stroke:#222222;stroke-width:1.0;fill:none;"/><ellipse cx="195.5" cy="611.2148" fill="#222222" rx="6" ry="6" style="stroke:#111111;stroke-width:1.0;"/><line style="stroke:#181818;stroke-width:1.0;" x1="195.5" x2="195.5" y1="30" y2="50"/><polygon fill="#181818" points="191.5,40,195.5,50,199.5,40,195.5,44" style="stroke:#181818;stroke-width:1.0;"/><line style="stroke:#181818;stroke-width:1.0;" x1="98" x2="98" y1="198.4219" y2="233.4219"/><polygon fill="#181818" points="94,223.4219,98,233.4219,102,223.4219,98,227.4219" style="stroke:#181818;stroke-width:1.0;"/><line style="stroke:#181818;stroke-width:1.0;" x1="279.5" x2="279.5" y1="163.9375" y2="198.9375"/><polygon fill="#181818" points="275.5,188.9375,279.5,198.9375,283.5,188.9375,279.5,192.9375" style="stroke:#181818;stroke-width:1.0;"/><line style="stroke:#181818;stroke-width:1.0;" x1="279.5" x2="279.5" y1="232.9063" y2="267.9063"/><polygon fill="#181818" points="275.5,257.9063,279.5,267.9063,283.5,257.9063,279.5,261.9063" style="stroke:#181818;stroke-width:1.0;"/><line style="stroke:#181818;stroke-width:1.0;" x1="98" x2="98" y1="109.9688" y2="164.4531"/><polygon fill="#181818" points="94,154.4531,98,164.4531,102,154.4531,98,158.4531" style="stroke:#181818;stroke-width:1.0;"/><line style="stroke:#181818;stroke-width:1.0;" x1="279.5" x2="279.5" y1="109.9688" y2="129.9688"/><polygon fill="#181818" points="275.5,119.9688,279.5,129.9688,283.5,119.9688,279.5,123.9688" style="stroke:#181818;stroke-width:1.0;"/><line style="stroke:#181818;stroke-width:1.0;" x1="98" x2="98" y1="267.3906" y2="321.875"/><polygon fill="#181818" points="94,311.875,98,321.875,102,311.875,98,315.875" style="stroke:#181818;stroke-width:1.0;"/><line style="stroke:#181818;stroke-width:1.0;" x1="279.5" x2="279.5" y1="301.875" y2="321.875"/><polygon fill="#181818" points="275.5,311.875,279.5,321.875,283.5,311.875,279.5,315.875" style="stroke:#181818;stroke-width:1.0;"/><line style="stroke:#181818;stroke-width:1.0;" x1="195.5" x2="195.5" y1="83.9688" y2="103.9688"/><polygon fill="#181818" points="191.5,93.9688,195.5,103.9688,199.5,93.9688,195.5,97.9688" style="stroke:#181818;stroke-width:1.0;"/><line style="stroke:#181818;stroke-width:1.0;" x1="92" x2="92" y1="402.2773" y2="422.2773"/><polygon fill="#181818" points="88,412.2773,92,422.2773,96,412.2773,92,416.2773" style="stroke:#181818;stroke-width:1.0;"/><line style="stroke:#181818;stroke-width:1.0;" x1="276.5" x2="276.5" y1="402.2773" y2="422.2773"/><polygon fill="#181818" points="272.5,412.2773,276.5,422.2773,280.5,412.2773,276.5,416.2773" style="stroke:#181818;stroke-width:1.0;"/><line style="stroke:#181818;stroke-width:1.0;" x1="92" x2="92" y1="456.2461" y2="476.2461"/><polygon fill="#181818" points="88,466.2461,92,476.2461,96,466.2461,92,470.2461" style="stroke:#181818;stroke-width:1.0;"/><line style="stroke:#181818;stroke-width:1.0;" x1="276.5" x2="276.5" y1="456.2461" y2="476.2461"/><polygon fill="#181818" points="272.5,466.2461,276.5,476.2461,280.5,466.2461,276.5,470.2461" style="stroke:#181818;stroke-width:1.0;"/><line style="stroke:#181818;stroke-width:1.0;" x1="195.5" x2="195.5" y1="371.875" y2="396.2773"/><polygon fill="#181818" points="191.5,386.2773,195.5,396.2773,199.5,386.2773,195.5,390.2773" style="stroke:#181818;stroke-width:1.0;"/><line style="stroke:#181818;stroke-width:1.0;" x1="292.5" x2="390" y1="359.875" y2="359.875"/><polygon fill="#181818" points="386,429.2617,390,439.2617,394,429.2617,390,433.2617" style="stroke:#181818;stroke-width:1.0;"/><line style="stroke:#181818;stroke-width:1.0;" x1="390" x2="390" y1="359.875" y2="514.2461"/><line style="stroke:#181818;stroke-width:1.0;" x1="390" x2="207.5" y1="514.2461" y2="514.2461"/><polygon fill="#181818" points="217.5,510.2461,207.5,514.2461,217.5,518.2461,213.5,514.2461" style="stroke:#181818;stroke-width:1.0;"/><line style="stroke:#181818;stroke-width:1.0;" x1="195.5" x2="195.5" y1="482.2461" y2="502.2461"/><polygon fill="#181818" points="191.5,492.2461,195.5,502.2461,199.5,492.2461,195.5,496.2461" style="stroke:#181818;stroke-width:1.0;"/><line style="stroke:#181818;stroke-width:1.0;" x1="195.5" x2="195.5" y1="327.875" y2="347.875"/><polygon fill="#181818" points="191.5,337.875,195.5,347.875,199.5,337.875,195.5,341.875" style="stroke:#181818;stroke-width:1.0;"/><line style="stroke:#181818;stroke-width:1.0;" x1="195.5" x2="195.5" y1="526.2461" y2="546.2461"/><polygon fill="#181818" points="191.5,536.2461,195.5,546.2461,199.5,536.2461,195.5,540.2461" style="stroke:#181818;stroke-width:1.0;"/><line style="stroke:#181818;stroke-width:1.0;" x1="195.5" x2="195.5" y1="580.2148" y2="600.2148"/><polygon fill="#181818" points="191.5,590.2148,195.5,600.2148,199.5,590.2148,195.5,594.2148" style="stroke:#181818;stroke-width:1.0;"/><!--MD5=[b1f415de6d3c8cb9c5619977ab7d0fa4]
@startuml
start
:unmarshall_event;
fork
:get_driver;
:driver_to_geodriver;
fork again
:get_current_coordinates;
:get_location;
:location_to_geodriver;
end fork
if (is_driver_close_to_destination) then (yes)
fork
:notify_driver_close;
fork again
:save_driver_in_destination;
end fork
else (no)
endif
:mark_event_as_processed;
stop
@enduml

PlantUML version 1.2022.6beta2(Unknown compile time)
(GPL source distribution)
Java Runtime: Java(TM) SE Runtime Environment
JVM: Java HotSpot(TM) 64-Bit Server VM
Default Encoding: UTF-8
Language: en
Country: US
--></g></svg>