<?xml version="1.0" encoding="UTF-8" standalone="no"?><svg xmlns="http://www.w3.org/2000/svg" xmlns:xlink="http://www.w3.org/1999/xlink" contentScriptType="application/ecmascript" contentStyleType="text/css" height="828px" preserveAspectRatio="none" style="width:476px;height:828px;" version="1.1" viewBox="0 0 476 828" width="476px" zoomAndPan="magnify"><defs><filter height="300%" id="fmdaqx1bhowbv" width="300%" x="-1" y="-1"><feGaussianBlur result="blurOut" stdDeviation="2.0"/><feColorMatrix in="blurOut" result="blurOut2" type="matrix" values="0 0 0 0 0 0 0 0 0 0 0 0 0 0 0 0 0 0 .4 0"/><feOffset dx="4.0" dy="4.0" in="blurOut2" result="blurOut3"/><feBlend in="SourceGraphic" in2="blurOut3" mode="normal"/></filter></defs><g><ellipse cx="237.5" cy="20" fill="#000000" filter="url(#fmdaqx1bhowbv)" rx="10" ry="10" style="stroke: none; stroke-width: 1.0;"/><rect fill="#000000" filter="url(#fmdaqx1bhowbv)" height="6" rx="2.5" ry="2.5" style="stroke: #000000; stroke-width: 1.0;" width="329" x="73" y="50"/><rect fill="#FEFECE" filter="url(#fmdaqx1bhowbv)" height="33.9688" rx="12.5" ry="12.5" style="stroke: #A80036; stroke-width: 1.5;" width="78" x="87" y="76"/><text fill="#000000" font-family="sans-serif" font-size="12" lengthAdjust="spacingAndGlyphs" textLength="58" x="97" y="97.1387">get width</text><rect fill="#FEFECE" filter="url(#fmdaqx1bhowbv)" height="33.9688" rx="12.5" ry="12.5" style="stroke: #A80036; stroke-width: 1.5;" width="85" x="193" y="76"/><text fill="#000000" font-family="sans-serif" font-size="12" lengthAdjust="spacingAndGlyphs" textLength="65" x="203" y="97.1387">get height</text><rect fill="#FEFECE" filter="url(#fmdaqx1bhowbv)" height="33.9688" rx="12.5" ry="12.5" style="stroke: #A80036; stroke-width: 1.5;" width="82" x="306" y="76"/><text fill="#000000" font-family="sans-serif" font-size="12" lengthAdjust="spacingAndGlyphs" textLength="62" x="316" y="97.1387">get depth</text><rect fill="#000000" filter="url(#fmdaqx1bhowbv)" height="6" rx="2.5" ry="2.5" style="stroke: #000000; stroke-width: 1.0;" width="329" x="73" y="129.9688"/><rect fill="#000000" filter="url(#fmdaqx1bhowbv)" height="6" rx="2.5" ry="2.5" style="stroke: #000000; stroke-width: 1.0;" width="237" x="119" y="155.9688"/><rect fill="#FEFECE" filter="url(#fmdaqx1bhowbv)" height="33.9688" rx="12.5" ry="12.5" style="stroke: #A80036; stroke-width: 1.5;" width="89" x="133" y="181.9688"/><text fill="#000000" font-family="sans-serif" font-size="12" lengthAdjust="spacingAndGlyphs" textLength="69" x="143" y="203.1074">get volume</text><rect fill="#FEFECE" filter="url(#fmdaqx1bhowbv)" height="33.9688" rx="12.5" ry="12.5" style="stroke: #A80036; stroke-width: 1.5;" width="92" x="250" y="181.9688"/><text fill="#000000" font-family="sans-serif" font-size="12" lengthAdjust="spacingAndGlyphs" textLength="72" x="260" y="203.1074">get surface</text><rect fill="#000000" filter="url(#fmdaqx1bhowbv)" height="6" rx="2.5" ry="2.5" style="stroke: #000000; stroke-width: 1.0;" width="237" x="119" y="235.9375"/><rect fill="#000000" filter="url(#fmdaqx1bhowbv)" height="6" rx="2.5" ry="2.5" style="stroke: #000000; stroke-width: 1.0;" width="455" x="10" y="261.9375"/><rect fill="#FEFECE" filter="url(#fmdaqx1bhowbv)" height="33.9688" rx="12.5" ry="12.5" style="stroke: #A80036; stroke-width: 1.5;" width="203" x="22" y="287.9375"/><text fill="#000000" font-family="sans-serif" font-size="12" lengthAdjust="spacingAndGlyphs" textLength="183" x="32" y="309.0762">get price for painting surface</text><rect fill="#FEFECE" filter="url(#fmdaqx1bhowbv)" height="33.9688" rx="12.5" ry="12.5" style="stroke: #A80036; stroke-width: 1.5;" width="108" x="69.5" y="341.9063"/><text fill="#000000" font-family="sans-serif" font-size="12" lengthAdjust="spacingAndGlyphs" textLength="88" x="79.5" y="363.0449">record a price</text><rect fill="#FEFECE" filter="url(#fmdaqx1bhowbv)" height="33.9688" rx="12.5" ry="12.5" style="stroke: #A80036; stroke-width: 1.5;" width="200" x="253" y="287.9375"/><text fill="#000000" font-family="sans-serif" font-size="12" lengthAdjust="spacingAndGlyphs" textLength="180" x="263" y="309.0762">get price for painting volume</text><rect fill="#FEFECE" filter="url(#fmdaqx1bhowbv)" height="33.9688" rx="12.5" ry="12.5" style="stroke: #A80036; stroke-width: 1.5;" width="108" x="299" y="341.9063"/><text fill="#000000" font-family="sans-serif" font-size="12" lengthAdjust="spacingAndGlyphs" textLength="88" x="309" y="363.0449">record a price</text><rect fill="#000000" filter="url(#fmdaqx1bhowbv)" height="6" rx="2.5" ry="2.5" style="stroke: #000000; stroke-width: 1.0;" width="455" x="10" y="395.875"/><rect fill="#FEFECE" filter="url(#fmdaqx1bhowbv)" height="33.9688" rx="12.5" ry="12.5" style="stroke: #A80036; stroke-width: 1.5;" width="116" x="179.5" y="421.875"/><text fill="#000000" font-family="sans-serif" font-size="12" lengthAdjust="spacingAndGlyphs" textLength="96" x="189.5" y="443.0137">evaluate prices</text><rect fill="#000000" filter="url(#fmdaqx1bhowbv)" height="6" rx="2.5" ry="2.5" style="stroke: #000000; stroke-width: 1.0;" width="391" x="42" y="524.2461"/><rect fill="#FEFECE" filter="url(#fmdaqx1bhowbv)" height="33.9688" rx="12.5" ry="12.5" style="stroke: #A80036; stroke-width: 1.5;" width="169" x="56" y="550.2461"/><text fill="#000000" font-family="sans-serif" font-size="12" lengthAdjust="spacingAndGlyphs" textLength="149" x="66" y="571.3848">accept surface painting</text><rect fill="#FEFECE" filter="url(#fmdaqx1bhowbv)" height="33.9688" rx="12.5" ry="12.5" style="stroke: #A80036; stroke-width: 1.5;" width="166" x="253" y="550.2461"/><text fill="#000000" font-family="sans-serif" font-size="12" lengthAdjust="spacingAndGlyphs" textLength="146" x="263" y="571.3848">accept volume painting</text><rect fill="#000000" filter="url(#fmdaqx1bhowbv)" height="6" rx="2.5" ry="2.5" style="stroke: #000000; stroke-width: 1.0;" width="391" x="42" y="604.2148"/><rect fill="#000000" filter="url(#fmdaqx1bhowbv)" height="6" rx="2.5" ry="2.5" style="stroke: #000000; stroke-width: 1.0;" width="369" x="53" y="645.2148"/><rect fill="#FEFECE" filter="url(#fmdaqx1bhowbv)" height="33.9688" rx="12.5" ry="12.5" style="stroke: #A80036; stroke-width: 1.5;" width="158" x="67" y="671.2148"/><text fill="#000000" font-family="sans-serif" font-size="12" lengthAdjust="spacingAndGlyphs" textLength="138" x="77" y="692.3535">paint surface painting</text><rect fill="#FEFECE" filter="url(#fmdaqx1bhowbv)" height="33.9688" rx="12.5" ry="12.5" style="stroke: #A80036; stroke-width: 1.5;" width="155" x="253" y="671.2148"/><text fill="#000000" font-family="sans-serif" font-size="12" lengthAdjust="spacingAndGlyphs" textLength="135" x="263" y="692.3535">paint volume painting</text><rect fill="#000000" filter="url(#fmdaqx1bhowbv)" height="6" rx="2.5" ry="2.5" style="stroke: #000000; stroke-width: 1.0;" width="369" x="53" y="725.1836"/><polygon fill="#FEFECE" filter="url(#fmdaqx1bhowbv)" points="201.5,475.8438,273.5,475.8438,285.5,487.8438,273.5,499.8438,201.5,499.8438,189.5,487.8438,201.5,475.8438" style="stroke: #A80036; stroke-width: 1.5;"/><text fill="#000000" font-family="sans-serif" font-size="11" lengthAdjust="spacingAndGlyphs" textLength="20" x="241.5" y="510.0542">yes</text><text fill="#000000" font-family="sans-serif" font-size="11" lengthAdjust="spacingAndGlyphs" textLength="72" x="201.5" y="491.6519">should_paint</text><text fill="#000000" font-family="sans-serif" font-size="11" lengthAdjust="spacingAndGlyphs" textLength="14" x="285.5" y="485.2495">no</text><polygon fill="#FEFECE" filter="url(#fmdaqx1bhowbv)" points="237.5,751.1836,249.5,763.1836,237.5,775.1836,225.5,763.1836,237.5,751.1836" style="stroke: #A80036; stroke-width: 1.5;"/><ellipse cx="237.5" cy="806.1836" fill="#FFFFFF" filter="url(#fmdaqx1bhowbv)" rx="11" ry="11" style="stroke: #000000; stroke-width: 1.0;"/><ellipse cx="237.5" cy="806.1836" fill="#000000" rx="6" ry="6" style="stroke: #7F7F7F; stroke-width: 1.0;"/><line style="stroke: #A80036; stroke-width: 1.5;" x1="126" x2="126" y1="56" y2="76"/><polygon fill="#A80036" points="122,66,126,76,130,66,126,70" style="stroke: #A80036; stroke-width: 1.0;"/><line style="stroke: #A80036; stroke-width: 1.5;" x1="235.5" x2="235.5" y1="56" y2="76"/><polygon fill="#A80036" points="231.5,66,235.5,76,239.5,66,235.5,70" style="stroke: #A80036; stroke-width: 1.0;"/><line style="stroke: #A80036; stroke-width: 1.5;" x1="347" x2="347" y1="56" y2="76"/><polygon fill="#A80036" points="343,66,347,76,351,66,347,70" style="stroke: #A80036; stroke-width: 1.0;"/><line style="stroke: #A80036; stroke-width: 1.5;" x1="126" x2="126" y1="109.9688" y2="129.9688"/><polygon fill="#A80036" points="122,119.9688,126,129.9688,130,119.9688,126,123.9688" style="stroke: #A80036; stroke-width: 1.0;"/><line style="stroke: #A80036; stroke-width: 1.5;" x1="235.5" x2="235.5" y1="109.9688" y2="129.9688"/><polygon fill="#A80036" points="231.5,119.9688,235.5,129.9688,239.5,119.9688,235.5,123.9688" style="stroke: #A80036; stroke-width: 1.0;"/><line style="stroke: #A80036; stroke-width: 1.5;" x1="347" x2="347" y1="109.9688" y2="129.9688"/><polygon fill="#A80036" points="343,119.9688,347,129.9688,351,119.9688,347,123.9688" style="stroke: #A80036; stroke-width: 1.0;"/><line style="stroke: #A80036; stroke-width: 1.5;" x1="237.5" x2="237.5" y1="30" y2="50"/><polygon fill="#A80036" points="233.5,40,237.5,50,241.5,40,237.5,44" style="stroke: #A80036; stroke-width: 1.0;"/><line style="stroke: #A80036; stroke-width: 1.5;" x1="177.5" x2="177.5" y1="161.9688" y2="181.9688"/><polygon fill="#A80036" points="173.5,171.9688,177.5,181.9688,181.5,171.9688,177.5,175.9688" style="stroke: #A80036; stroke-width: 1.0;"/><line style="stroke: #A80036; stroke-width: 1.5;" x1="296" x2="296" y1="161.9688" y2="181.9688"/><polygon fill="#A80036" points="292,171.9688,296,181.9688,300,171.9688,296,175.9688" style="stroke: #A80036; stroke-width: 1.0;"/><line style="stroke: #A80036; stroke-width: 1.5;" x1="177.5" x2="177.5" y1="215.9375" y2="235.9375"/><polygon fill="#A80036" points="173.5,225.9375,177.5,235.9375,181.5,225.9375,177.5,229.9375" style="stroke: #A80036; stroke-width: 1.0;"/><line style="stroke: #A80036; stroke-width: 1.5;" x1="296" x2="296" y1="215.9375" y2="235.9375"/><polygon fill="#A80036" points="292,225.9375,296,235.9375,300,225.9375,296,229.9375" style="stroke: #A80036; stroke-width: 1.0;"/><line style="stroke: #A80036; stroke-width: 1.5;" x1="237.5" x2="237.5" y1="135.9688" y2="155.9688"/><polygon fill="#A80036" points="233.5,145.9688,237.5,155.9688,241.5,145.9688,237.5,149.9688" style="stroke: #A80036; stroke-width: 1.0;"/><line style="stroke: #A80036; stroke-width: 1.5;" x1="123.5" x2="123.5" y1="321.9063" y2="341.9063"/><polygon fill="#A80036" points="119.5,331.9063,123.5,341.9063,127.5,331.9063,123.5,335.9063" style="stroke: #A80036; stroke-width: 1.0;"/><line style="stroke: #A80036; stroke-width: 1.5;" x1="353" x2="353" y1="321.9063" y2="341.9063"/><polygon fill="#A80036" points="349,331.9063,353,341.9063,357,331.9063,353,335.9063" style="stroke: #A80036; stroke-width: 1.0;"/><line style="stroke: #A80036; stroke-width: 1.5;" x1="123.5" x2="123.5" y1="267.9375" y2="287.9375"/><polygon fill="#A80036" points="119.5,277.9375,123.5,287.9375,127.5,277.9375,123.5,281.9375" style="stroke: #A80036; stroke-width: 1.0;"/><line style="stroke: #A80036; stroke-width: 1.5;" x1="353" x2="353" y1="267.9375" y2="287.9375"/><polygon fill="#A80036" points="349,277.9375,353,287.9375,357,277.9375,353,281.9375" style="stroke: #A80036; stroke-width: 1.0;"/><line style="stroke: #A80036; stroke-width: 1.5;" x1="123.5" x2="123.5" y1="375.875" y2="395.875"/><polygon fill="#A80036" points="119.5,385.875,123.5,395.875,127.5,385.875,123.5,389.875" style="stroke: #A80036; stroke-width: 1.0;"/><line style="stroke: #A80036; stroke-width: 1.5;" x1="353" x2="353" y1="375.875" y2="395.875"/><polygon fill="#A80036" points="349,385.875,353,395.875,357,385.875,353,389.875" style="stroke: #A80036; stroke-width: 1.0;"/><line style="stroke: #A80036; stroke-width: 1.5;" x1="237.5" x2="237.5" y1="241.9375" y2="261.9375"/><polygon fill="#A80036" points="233.5,251.9375,237.5,261.9375,241.5,251.9375,237.5,255.9375" style="stroke: #A80036; stroke-width: 1.0;"/><line style="stroke: #A80036; stroke-width: 1.5;" x1="237.5" x2="237.5" y1="401.875" y2="421.875"/><polygon fill="#A80036" points="233.5,411.875,237.5,421.875,241.5,411.875,237.5,415.875" style="stroke: #A80036; stroke-width: 1.0;"/><line style="stroke: #A80036; stroke-width: 1.5;" x1="140.5" x2="140.5" y1="530.2461" y2="550.2461"/><polygon fill="#A80036" points="136.5,540.2461,140.5,550.2461,144.5,540.2461,140.5,544.2461" style="stroke: #A80036; stroke-width: 1.0;"/><line style="stroke: #A80036; stroke-width: 1.5;" x1="336" x2="336" y1="530.2461" y2="550.2461"/><polygon fill="#A80036" points="332,540.2461,336,550.2461,340,540.2461,336,544.2461" style="stroke: #A80036; stroke-width: 1.0;"/><line style="stroke: #A80036; stroke-width: 1.5;" x1="140.5" x2="140.5" y1="584.2148" y2="604.2148"/><polygon fill="#A80036" points="136.5,594.2148,140.5,604.2148,144.5,594.2148,140.5,598.2148" style="stroke: #A80036; stroke-width: 1.0;"/><line style="stroke: #A80036; stroke-width: 1.5;" x1="336" x2="336" y1="584.2148" y2="604.2148"/><polygon fill="#A80036" points="332,594.2148,336,604.2148,340,594.2148,336,598.2148" style="stroke: #A80036; stroke-width: 1.0;"/><line style="stroke: #A80036; stroke-width: 1.5;" x1="146" x2="146" y1="651.2148" y2="671.2148"/><polygon fill="#A80036" points="142,661.2148,146,671.2148,150,661.2148,146,665.2148" style="stroke: #A80036; stroke-width: 1.0;"/><line style="stroke: #A80036; stroke-width: 1.5;" x1="330.5" x2="330.5" y1="651.2148" y2="671.2148"/><polygon fill="#A80036" points="326.5,661.2148,330.5,671.2148,334.5,661.2148,330.5,665.2148" style="stroke: #A80036; stroke-width: 1.0;"/><line style="stroke: #A80036; stroke-width: 1.5;" x1="146" x2="146" y1="705.1836" y2="725.1836"/><polygon fill="#A80036" points="142,715.1836,146,725.1836,150,715.1836,146,719.1836" style="stroke: #A80036; stroke-width: 1.0;"/><line style="stroke: #A80036; stroke-width: 1.5;" x1="330.5" x2="330.5" y1="705.1836" y2="725.1836"/><polygon fill="#A80036" points="326.5,715.1836,330.5,725.1836,334.5,715.1836,330.5,719.1836" style="stroke: #A80036; stroke-width: 1.0;"/><line style="stroke: #A80036; stroke-width: 1.5;" x1="237.5" x2="237.5" y1="610.2148" y2="645.2148"/><polygon fill="#A80036" points="233.5,635.2148,237.5,645.2148,241.5,635.2148,237.5,639.2148" style="stroke: #A80036; stroke-width: 1.0;"/><line style="stroke: #A80036; stroke-width: 1.5;" x1="237.5" x2="237.5" y1="499.8438" y2="524.2461"/><polygon fill="#A80036" points="233.5,514.2461,237.5,524.2461,241.5,514.2461,237.5,518.2461" style="stroke: #A80036; stroke-width: 1.0;"/><line style="stroke: #A80036; stroke-width: 1.5;" x1="285.5" x2="443" y1="487.8438" y2="487.8438"/><polygon fill="#A80036" points="439,617.7148,443,627.7148,447,617.7148,443,621.7148" style="stroke: #A80036; stroke-width: 1.5;"/><line style="stroke: #A80036; stroke-width: 1.5;" x1="443" x2="443" y1="487.8438" y2="763.1836"/><line style="stroke: #A80036; stroke-width: 1.5;" x1="443" x2="249.5" y1="763.1836" y2="763.1836"/><polygon fill="#A80036" points="259.5,759.1836,249.5,763.1836,259.5,767.1836,255.5,763.1836" style="stroke: #A80036; stroke-width: 1.0;"/><line style="stroke: #A80036; stroke-width: 1.5;" x1="237.5" x2="237.5" y1="731.1836" y2="751.1836"/><polygon fill="#A80036" points="233.5,741.1836,237.5,751.1836,241.5,741.1836,237.5,745.1836" style="stroke: #A80036; stroke-width: 1.0;"/><line style="stroke: #A80036; stroke-width: 1.5;" x1="237.5" x2="237.5" y1="455.8438" y2="475.8438"/><polygon fill="#A80036" points="233.5,465.8438,237.5,475.8438,241.5,465.8438,237.5,469.8438" style="stroke: #A80036; stroke-width: 1.0;"/><line style="stroke: #A80036; stroke-width: 1.5;" x1="237.5" x2="237.5" y1="775.1836" y2="795.1836"/><polygon fill="#A80036" points="233.5,785.1836,237.5,795.1836,241.5,785.1836,237.5,789.1836" style="stroke: #A80036; stroke-width: 1.0;"/><!--MD5=[2cc0bae11f05679cc6330372aab723c7]
@startuml
start
fork
:get width;
fork again
:get height;
fork again
:get depth;
end fork
fork
:get volume;
fork again
:get surface;
end fork
fork
:get price for painting surface;
:record a price;
fork again
:get price for painting volume;
:record a price;
end fork
:evaluate prices;
if (should_paint) then (yes)
fork
:accept surface painting;
fork again
:accept volume painting;
end fork
fork
:paint surface painting;
fork again
:paint volume painting;
end fork
else (no)
endif
stop
@enduml

PlantUML version 1.2020.01beta5(Unknown compile time)
(GPL source distribution)
Java Runtime: Java(TM) SE Runtime Environment
JVM: Java HotSpot(TM) 64-Bit Server VM
Java Version: 1.7.0_25-b15
Operating System: Linux
Default Encoding: UTF-8
Language: en
Country: US
--></g></svg>